<svg aria-hidden="true" style="position: absolute; width: 0; height: 0; overflow: hidden;" version="1.1" xmlns="http://www.w3.org/2000/svg" xmlns:xlink="http://www.w3.org/1999/xlink">
<defs>
<symbol id="icon-Arrow---Down-2" viewBox="0 0 32 32">
<path stroke-linejoin="round" stroke-linecap="round" stroke-miterlimit="4" stroke-width="3" d="M25.333 11.333l-9.333 9.333-9.333-9.333"></path>
</symbol>
<symbol id="icon-Arrow---Right-0" viewBox="0 0 32 32">
<path d="M5.333 15.634c0-0.506 0.376-0.925 0.864-0.991l0.136-0.009h20c0.552 0 1 0.448 1 1 0 0.506-0.376 0.925-0.864 0.991l-0.136 0.009h-20c-0.552 0-1-0.448-1-1z"></path>
<path d="M17.561 8.31c-0.391-0.39-0.393-1.023-0.003-1.414 0.354-0.356 0.91-0.389 1.302-0.1l0.112 0.097 8.067 8.032c0.357 0.355 0.389 0.913 0.097 1.305l-0.097 0.112-8.067 8.033c-0.391 0.39-1.024 0.388-1.414-0.003-0.354-0.356-0.385-0.911-0.094-1.302l0.097-0.112 7.355-7.325-7.355-7.323z"></path>
</symbol>
<symbol id="icon-Arrow---Right-2" viewBox="0 0 32 32">
<path stroke-linejoin="round" stroke-linecap="round" stroke-miterlimit="4" stroke-width="2.6667" d="M11.333 6.667c0 0 9.333 5.525 9.333 9.333 0 3.807-9.333 9.333-9.333 9.333"></path>
</symbol>
<symbol id="icon-Arrow---Right-01" viewBox="0 0 32 32">
<path fill="none" stroke="#fff" style="stroke: var(--color1, #fff)" stroke-linejoin="round" stroke-linecap="round" stroke-miterlimit="4" stroke-width="2.6667" d="M26.334 15.634h-20"></path>
<path fill="none" stroke="#fff" style="stroke: var(--color1, #fff)" stroke-linejoin="round" stroke-linecap="round" stroke-miterlimit="4" stroke-width="2.6667" d="M18.266 7.602c0 0 8.067 4.348 8.067 8.031 0 3.685-8.067 8.035-8.067 8.035"></path>
</symbol>
<symbol id="icon-basket-1" viewBox="0 0 32 32">
<path d="M22.87 26.999h-9.685c-4.135 0-7.499-3.364-7.499-7.499v-7.686c0-3.844-1.916-7.401-5.125-9.517-0.576-0.38-0.735-1.155-0.355-1.731s1.155-0.736 1.731-0.355c1.832 1.208 3.318 2.801 4.381 4.635 0.23 0.257 2.081 2.22 5.117 2.22h14.392c3.926-0.073 7 3.867 5.973 7.657l-1.657 6.603c-0.838 3.341-3.829 5.674-7.273 5.674zM7.871 8.859c0.208 0.96 0.315 1.95 0.315 2.956v7.686c0 2.756 2.243 4.999 4.999 4.999h9.685c2.296 0 4.29-1.556 4.849-3.783l1.657-6.603c0.61-2.252-1.216-4.593-3.549-4.549h-14.392c-1.373 0-2.568-0.296-3.565-0.706zM12.56 30.436c0-0.863-0.699-1.562-1.562-1.562-2.073 0.083-2.071 3.043 0 3.124 0.863 0 1.562-0.7 1.562-1.562zM24.996 30.436c0-0.863-0.699-1.562-1.562-1.562-2.073 0.083-2.071 3.043 0 3.124 0.863 0 1.562-0.7 1.562-1.562zM27.077 13.314c0-0.69-0.56-1.25-1.25-1.25h-13.892c-1.658 0.066-1.657 2.434 0 2.5h13.892c0.69 0 1.25-0.56 1.25-1.25z"></path>
</symbol>
<symbol id="icon-Frame" viewBox="0 0 32 32">
<path d="M23.305 25.604c-6.392 5.094-15.328 3.684-20.061-2.158-4.568-5.64-4.283-13.777 0.673-18.926 5.121-5.321 13.171-6.031 19.007-1.666 2.091 1.563 3.652 3.552 4.669 5.96 1.023 2.421 1.334 4.941 0.979 7.539-0.354 2.586-1.386 4.891-3.065 7.042 0.136 0.089 0.281 0.153 0.385 0.257 1.846 1.838 3.685 3.683 5.531 5.521 0.438 0.436 0.655 0.943 0.526 1.554-0.258 1.217-1.706 1.686-2.635 0.851-0.436-0.391-0.836-0.821-1.25-1.235-1.516-1.515-3.032-3.032-4.548-4.547-0.063-0.060-0.129-0.116-0.211-0.192zM25.525 14.378c0.016-6.176-4.97-11.168-11.159-11.178-6.173-0.009-11.155 4.944-11.181 11.116-0.027 6.191 4.949 11.198 11.158 11.226 6.148 0.029 11.167-4.983 11.183-11.165z"></path>
</symbol>
<symbol id="icon-heart-1" viewBox="0 0 32 32">
<path d="M16 30.22c-0.456 0-0.895-0.165-1.237-0.465-1.293-1.13-2.539-2.193-3.639-3.13l-0.006-0.005c-3.224-2.747-6.008-5.12-7.945-7.457-2.165-2.613-3.174-5.090-3.174-7.796 0-2.629 0.902-5.055 2.539-6.831 1.657-1.797 3.929-2.786 6.401-2.786 1.847 0 3.539 0.584 5.028 1.736 0.751 0.581 1.433 1.293 2.033 2.123 0.6-0.83 1.281-1.541 2.033-2.123 1.489-1.152 3.181-1.736 5.028-1.736 2.471 0 4.744 0.99 6.401 2.786 1.637 1.776 2.538 4.201 2.538 6.831 0 2.706-1.008 5.184-3.174 7.796-1.937 2.337-4.721 4.71-7.944 7.457-1.102 0.939-2.35 2.002-3.646 3.136-0.342 0.299-0.781 0.464-1.237 0.464zM8.939 3.624c-1.942 0-3.725 0.775-5.023 2.182-1.317 1.428-2.042 3.403-2.042 5.56 0 2.276 0.846 4.312 2.743 6.6 1.833 2.212 4.56 4.536 7.717 7.227l0.006 0.005c1.104 0.941 2.355 2.007 3.657 3.146 1.31-1.141 2.563-2.209 3.669-3.151 3.157-2.691 5.884-5.014 7.717-7.226 1.896-2.289 2.742-4.324 2.742-6.6 0-2.157-0.725-4.132-2.042-5.56-1.297-1.407-3.081-2.182-5.023-2.182-1.422 0-2.728 0.452-3.881 1.344-1.028 0.795-1.744 1.8-2.163 2.503-0.216 0.362-0.596 0.577-1.016 0.577s-0.801-0.216-1.016-0.577c-0.419-0.703-1.135-1.708-2.163-2.503-1.153-0.892-2.459-1.344-3.881-1.344z"></path>
</symbol>
</defs>
</svg>
